<svg width="50" height="24" viewBox="0 0 50 24" fill="none" xmlns="http://www.w3.org/2000/svg">
<path fill-rule="evenodd" clip-rule="evenodd" d="M36.3389 5.62146H39.0845L45.4271 13.9362V5.62146H48.3662V19.1264H45.8333L39.2779 10.5408V19.1264H36.3389V5.62146Z" fill="#575555"></path>
<path fill-rule="evenodd" clip-rule="evenodd" d="M1 5.61377H7.28403C8.83104 5.61377 10.0493 6.038 10.8229 6.80975C11.4416 7.42705 11.7512 8.17976 11.7512 9.10544V9.14406C11.7512 10.6685 10.939 11.517 9.97196 12.0575C11.5386 12.6553 12.5051 13.5625 12.5051 15.3757V15.4144C12.5051 17.884 10.4942 19.1187 7.43935 19.1187H1V5.61377ZM8.79286 9.60691C8.79286 8.71982 8.09676 8.21837 6.83974 8.21837H3.90052V11.0737H6.64624C7.96105 11.0737 8.79286 10.6489 8.79286 9.64603V9.60691ZM7.34234 13.5429H3.90052V16.5141H7.43935C8.75364 16.5141 9.54675 16.0512 9.54675 15.0478V15.0092C9.54675 14.1026 8.86973 13.5429 7.34234 13.5429Z" fill="#575555"></path>
<path fill-rule="evenodd" clip-rule="evenodd" d="M22.3623 5.24438C22.0632 5.24438 21.7767 5.31748 21.5345 5.45598C20.9518 5.78909 20.6143 6.52995 20.6963 7.29964C20.8255 8.526 21.4732 9.46096 22.4125 10.4685C23.5571 9.55054 24.1006 8.5641 24.1205 7.37377C24.1331 6.58298 23.8975 6.0012 23.3998 5.59447C23.1236 5.36897 22.7551 5.24438 22.3623 5.24438ZM21.1741 12.5768C20.265 13.4191 19.7474 14.5636 19.7474 15.8034C19.7474 16.8103 20.0369 17.6187 20.6077 18.2051C21.1763 18.79 21.9864 19.0865 23.0129 19.0865C23.9566 19.0865 24.9085 18.7318 25.7045 18.1026L21.1741 12.5768ZM26.8277 19.0865C25.5458 20.0354 24.0674 20.5842 22.5041 20.5842C20.9932 20.5842 19.7016 20.1893 18.6655 19.4103C17.6162 18.6226 17.0837 17.5399 17.0837 16.1921C17.0837 14.4179 18.1368 12.8394 20.1661 11.6696C19.4372 10.7496 18.9343 10.0927 18.7202 9.54385C18.4942 8.96516 18.3805 8.36176 18.3805 7.75116C18.3805 6.62005 18.7948 5.70105 19.6115 5.01888C20.4209 4.34289 21.4385 4 22.6355 4C23.6915 4 24.5939 4.29192 25.3183 4.86752C25.9977 5.40707 26.3426 6.24061 26.3426 7.34443C26.3426 8.94251 25.3146 10.2482 23.2019 11.3329L27.5404 16.3624C27.9362 15.5423 28.1636 14.5986 28.1636 13.5735C28.1636 13.1154 28.174 12.7833 28.1319 12.5057C28.1127 12.3699 28.0986 12.3173 28.0462 12.256C28.0063 12.2092 27.852 12.1263 27.7427 12.1021L26.2909 11.7613L26.2613 11.0508L26.4216 11.0575C26.8314 11.0724 27.2391 11.0843 27.6452 11.0915C28.0514 11.0992 28.4671 11.1028 28.8903 11.1028C29.2565 11.1028 29.5992 11.0992 29.9197 11.0915C30.238 11.0843 30.5407 11.0729 30.8273 11.0575L30.9882 11.0462L31.0303 11.7546L29.5748 12.1937C29.4921 12.2159 29.4729 12.324 29.4803 12.3739C29.5253 12.7734 29.5475 13.07 29.5475 13.4015C29.5475 14.9713 29.1864 16.347 28.4745 17.4931C28.9198 18.1402 29.3274 18.6226 29.6885 18.9269C30.0533 19.2342 30.4883 19.4016 30.9749 19.4134C31.1101 19.417 31.2312 19.4083 31.576 19.3455L31.7208 19.3125L31.8434 20.0214L31.7496 20.0724C31.0968 20.4256 30.4181 20.5842 29.7129 20.5842C28.5749 20.5842 27.6364 20.0658 26.8277 19.0865Z" fill="#C39F43"></path>
</svg>